<mxfile host="app.diagrams.net" agent="Mozilla/5.0 (Windows NT 10.0; Win64; x64) AppleWebKit/537.36 (KHTML, like Gecko) Chrome/129.0.0.0 Safari/537.36" version="24.7.17">
  <diagram id="26AggO56XKMuZTzfmfu9" name="Page-1">
    <mxGraphModel dx="822" dy="1064" grid="1" gridSize="10" guides="1" tooltips="1" connect="1" arrows="1" fold="1" page="1" pageScale="1" pageWidth="827" pageHeight="1169" math="0" shadow="0">
      <root>
        <mxCell id="0" />
        <mxCell id="1" parent="0" />
        <mxCell id="zfJ_A97kqZe_yo1W9yH1-1" value="" style="shape=umlActor;verticalLabelPosition=bottom;verticalAlign=top;html=1;outlineConnect=0;" vertex="1" parent="1">
          <mxGeometry x="384" y="30" width="40" height="80" as="geometry" />
        </mxCell>
        <mxCell id="zfJ_A97kqZe_yo1W9yH1-2" style="edgeStyle=orthogonalEdgeStyle;rounded=0;orthogonalLoop=1;jettySize=auto;html=1;" edge="1" parent="1" source="zfJ_A97kqZe_yo1W9yH1-3" target="zfJ_A97kqZe_yo1W9yH1-16">
          <mxGeometry relative="1" as="geometry" />
        </mxCell>
        <mxCell id="zfJ_A97kqZe_yo1W9yH1-3" value="" style="outlineConnect=0;dashed=0;verticalLabelPosition=bottom;verticalAlign=top;align=center;html=1;shape=mxgraph.aws3.ec2;fillColor=#F58534;gradientColor=none;" vertex="1" parent="1">
          <mxGeometry x="280" y="300" width="80" height="100" as="geometry" />
        </mxCell>
        <mxCell id="zfJ_A97kqZe_yo1W9yH1-10" value="&lt;font style=&quot;font-size: 14px;&quot;&gt;&lt;b&gt;Filter Managers&lt;/b&gt;&lt;/font&gt;&lt;div&gt;&lt;font style=&quot;font-size: 14px;&quot;&gt;&lt;b&gt;SubSystem&lt;/b&gt;&lt;/font&gt;&lt;/div&gt;" style="text;html=1;align=center;verticalAlign=middle;whiteSpace=wrap;rounded=0;" vertex="1" parent="1">
          <mxGeometry x="290" y="250" width="60" height="30" as="geometry" />
        </mxCell>
        <mxCell id="zfJ_A97kqZe_yo1W9yH1-11" style="edgeStyle=orthogonalEdgeStyle;rounded=0;orthogonalLoop=1;jettySize=auto;html=1;entryX=0;entryY=0.5;entryDx=0;entryDy=0;entryPerimeter=0;" edge="1" parent="1" source="zfJ_A97kqZe_yo1W9yH1-1" target="zfJ_A97kqZe_yo1W9yH1-3">
          <mxGeometry relative="1" as="geometry">
            <mxPoint x="290" y="330.0000000000002" as="targetPoint" />
          </mxGeometry>
        </mxCell>
        <mxCell id="zfJ_A97kqZe_yo1W9yH1-13" value="&lt;b&gt;User&lt;/b&gt;" style="text;html=1;align=center;verticalAlign=middle;whiteSpace=wrap;rounded=0;" vertex="1" parent="1">
          <mxGeometry x="413" y="55" width="60" height="30" as="geometry" />
        </mxCell>
        <mxCell id="zfJ_A97kqZe_yo1W9yH1-14" value="" style="outlineConnect=0;dashed=0;verticalLabelPosition=bottom;verticalAlign=top;align=center;html=1;shape=mxgraph.aws3.s3;fillColor=#E05243;gradientColor=none;" vertex="1" parent="1">
          <mxGeometry x="715" y="538" width="76.5" height="93" as="geometry" />
        </mxCell>
        <mxCell id="zfJ_A97kqZe_yo1W9yH1-16" value="" style="outlineConnect=0;dashed=0;verticalLabelPosition=bottom;verticalAlign=top;align=center;html=1;shape=mxgraph.aws3.dynamo_db;fillColor=#2E73B8;gradientColor=none;" vertex="1" parent="1">
          <mxGeometry x="715" y="289.5" width="72" height="81" as="geometry" />
        </mxCell>
        <mxCell id="zfJ_A97kqZe_yo1W9yH1-17" style="edgeStyle=orthogonalEdgeStyle;rounded=0;orthogonalLoop=1;jettySize=auto;html=1;entryX=0;entryY=0.5;entryDx=0;entryDy=0;entryPerimeter=0;" edge="1" parent="1" source="zfJ_A97kqZe_yo1W9yH1-3" target="zfJ_A97kqZe_yo1W9yH1-14">
          <mxGeometry relative="1" as="geometry" />
        </mxCell>
        <mxCell id="zfJ_A97kqZe_yo1W9yH1-19" value="&lt;b&gt;&lt;font style=&quot;font-size: 14px;&quot;&gt;Filter Storage&lt;/font&gt;&lt;/b&gt;" style="text;html=1;align=center;verticalAlign=middle;whiteSpace=wrap;rounded=0;" vertex="1" parent="1">
          <mxGeometry x="723.25" y="640" width="60" height="30" as="geometry" />
        </mxCell>
        <mxCell id="zfJ_A97kqZe_yo1W9yH1-20" value="&lt;b&gt;&lt;font style=&quot;font-size: 14px;&quot;&gt;Filters Meta Data&lt;/font&gt;&lt;/b&gt;" style="text;html=1;align=center;verticalAlign=middle;whiteSpace=wrap;rounded=0;" vertex="1" parent="1">
          <mxGeometry x="715" y="380" width="76.75" height="30" as="geometry" />
        </mxCell>
        <mxCell id="zfJ_A97kqZe_yo1W9yH1-21" value="&lt;b&gt;&lt;font style=&quot;font-size: 18px;&quot;&gt;Admin Journey&lt;/font&gt;&lt;/b&gt;" style="text;html=1;align=center;verticalAlign=middle;whiteSpace=wrap;rounded=0;" vertex="1" parent="1">
          <mxGeometry y="10" width="141.75" height="30" as="geometry" />
        </mxCell>
      </root>
    </mxGraphModel>
  </diagram>
</mxfile>
